<svg xmlns="http://www.w3.org/2000/svg" width="1000" height="327.867"><path fill="#F4481E" d="M280.941 145.6L32.414 4.297c-10.618-5.963-20.109-5.401-25.89.195C2.368 8.398.29 14.73.29 22.947v281.937c0 8.192 2.437 14.551 6.234 18.457 5.965 5.772 15.272 6.228 25.89.185l248.527-141.309c17.882-9.951 17.882-26.363 0-36.617z"/><path fill="#FFF" d="M280.941 147.453L32.414 6.15C14.523-3.906 0 4.468 0 24.851V22.99C0 9.017 6.757.673 16.718 0h2.675c3.988.258 8.39 1.647 13.021 4.286l248.527 141.306c9.321 5.205 13.778 12.294 13.238 19.36-.391-6.32-4.677-12.649-13.238-17.499z"/><path fill="#FFD119" d="M256.342 196.462a116.644 116.644 0 0 0 4.47-32.433c.011-45.388-25.77-86.852-66.474-106.936-40.717-20.09-89.301-15.316-125.334 12.313C32.986 97.027 15.78 142.711 24.623 187.25c8.841 44.521 42.209 80.165 86.051 91.927l145.668-82.715z"/><path fill="#FF8C00" d="M216.113 164.03c0 41.168-33.366 74.534-74.517 74.534-41.16 0-74.517-33.366-74.517-74.534 0-41.146 33.357-74.514 74.517-74.514 41.152 0 74.517 33.368 74.517 74.514z"/><path fill="#FFF" d="M141.596 46.671c65.557-.024 118.826 52.89 119.238 118.443v-1.16c0-31.622-12.568-61.95-34.928-84.308a119.225 119.225 0 0 0-168.62 0 119.219 119.219 0 0 0-34.928 84.308v.933C22.944 99.441 76.15 46.693 141.596 46.671z"/><path fill="#757575" d="M383.249 90.522c0-26.492 22.57-48.085 49.062-48.085a46.085 46.085 0 0 1 32.872 13.26l-9.331 9.329a33.228 33.228 0 0 0-23.541-9.329c-19.512 0-35.324 15.813-35.324 35.324 0 19.502 15.812 35.327 35.324 35.327 12.763 0 19.613-4.912 24.539-9.817a27.758 27.758 0 0 0 7.359-16.624h-31.442V86.651h44.159c.421 2.748.583 5.54.497 8.312 0 9.814-2.954 22.09-11.288 30.919-8.325 8.835-19.135 13.734-33.846 13.734-27.002-.271-48.809-22.097-49.04-49.094zm130.016-13.843a30.937 30.937 0 0 0-28.222 19.417 30.921 30.921 0 0 0 7.012 33.531 30.91 30.91 0 0 0 33.623 6.492 30.914 30.914 0 0 0 18.989-28.519 30.87 30.87 0 0 0-9.224-22.046 30.899 30.899 0 0 0-22.178-8.875zm0 50.038a18.079 18.079 0 0 1-12.711-5.683 18.085 18.085 0 0 1-4.948-13.021 17.823 17.823 0 0 1 4.851-13.115 17.832 17.832 0 0 1 12.809-5.586 18.158 18.158 0 0 1 12.723 5.684 18.089 18.089 0 0 1 4.942 13.018c-.499 10.954-8.333 18.813-17.665 18.813v-.11h-.001zm67.719-50.038a30.94 30.94 0 0 0-28.223 19.417 30.91 30.91 0 0 0 7.015 33.531c8.87 8.746 22.141 11.298 33.638 6.492a30.927 30.927 0 0 0 18.972-28.519 30.904 30.904 0 0 0-9.212-22.046 30.92 30.92 0 0 0-22.19-8.875zm0 50.038a18.081 18.081 0 0 1-12.712-5.683 18.135 18.135 0 0 1-4.948-13.021 17.83 17.83 0 0 1 4.846-13.115 17.873 17.873 0 0 1 12.814-5.586c10.362 0 18.761 8.398 18.761 18.756 0 10.359-8.398 18.758-18.761 18.758v-.109zm83.892-47.957v4.901h-.499a21.714 21.714 0 0 0-16.178-6.982c-15.718 0-29.927 13.737-29.927 31.399-.206 16.775 13.151 30.574 29.927 30.943a21.754 21.754 0 0 0 16.178-6.885h.499v4.427c0 11.784-6.374 18.159-16.623 18.159a16.791 16.791 0 0 1-15.706-11.274l-11.784 4.899a29.115 29.115 0 0 0 27.469 18.167c16.189 0 29.448-9.332 29.448-32.373V78.76h-12.804zm-15.7 48.087c-9.332 0-17.172-7.858-17.172-18.704 0-10.853 7.861-19.146 17.172-19.146 9.304 0 16.623 7.858 16.623 19.146-.424 10.824-7.297 18.682-16.602 18.682l-.021.022zm37.77-81.043h13.731v91.26h-13.731v-91.26zm51.036 81.043a16.052 16.052 0 0 1-15.212-9.329l41.71-17.168-1.471-3.432c-2.457-6.882-10.39-19.621-26.497-19.621-16.103 0-29.449 12.717-29.449 30.886a30.154 30.154 0 0 0 8.865 22.027 30.224 30.224 0 0 0 22.054 8.811 31.571 31.571 0 0 0 25.999-13.737l-10.791-6.879a17.935 17.935 0 0 1-15.208 8.42v.022zm-.97-37.784a13.628 13.628 0 0 1 11.773 6.385l-27.963 11.776a16.825 16.825 0 0 1 4.21-12.557 16.827 16.827 0 0 1 11.979-5.626v.022h.001z"/><path fill="#FF5722" d="M382.268 200.391h10.788l29.44 51.508h.507l29.441-51.508h10.788v84.386h-10.788v-50.044l.499-14.235h-.499l-26.498 46.115h-6.372l-26.495-46.115h-.502l.502 14.235v50.044h-10.813v-84.386h.002zm135.429 84.386v-7.856h-.499c-2.957 5.394-10.395 9.799-18.161 9.799-14.719 0-22.089-9.799-22.089-24.034v-35.33h10.777v33.365c0 11.795 5.887 16.2 14.245 16.2 9.331 0 15.207-8.832 15.207-17.665v-31.879h10.78v57.422h-10.39l.13-.022zm17.66-14.725l9.809-3.928a16.15 16.15 0 0 0 15.712 10.796c6.874 0 11.778-3.429 11.778-8.312 0-2.962-1.953-5.881-7.845-7.866l-11.79-2.94c-5.403-1.477-15.207-5.893-15.207-16.189 0-10.298 10.78-17.166 23.063-17.166 9.809 0 18.706 4.427 22.092 13.26l-9.331 3.928a13.565 13.565 0 0 0-13.26-7.855c-5.887 0-11.285 2.951-11.285 7.356 0 3.418 2.951 5.881 7.856 6.879l11.279 2.952c11.284 2.94 15.712 9.809 15.712 16.623 0 10.395-9.326 18.153-22.564 18.153-14.719.977-22.564-7.357-25.998-15.712l-.021.021zm54.459-62.793c0-6.999 8.469-10.492 13.412-5.556 4.947 4.948 1.448 13.411-5.551 13.411a8.44 8.44 0 0 1-7.861-7.855zm1.959 77.539v-57.921h10.785v57.899h-10.785v.022zm20.112-28.949c0-17.665 12.267-30.925 29.449-30.925 13.736 0 21.593 8.312 25.521 16.623l-9.814 3.928c-2.501-6.705-9.027-11.046-16.179-10.785-9.331 0-18.164 8.312-18.164 20.616s8.833 20.616 18.164 20.616a17.192 17.192 0 0 0 16.624-10.796l9.804 3.938a26.708 26.708 0 0 1-25.521 16.623c-17.665.966-29.926-12.261-29.926-29.926l.042.088z"/><path fill="#757575" d="M824.837 45.855h-32.866v91.273h13.736v-34.85h19.13c15.219 0 29.927-10.78 29.927-28.445 0-17.662-15.202-27.978-29.927-27.978zM1000 78.904v-.144h-15.207l-15.712 39.751h-.499L952.387 78.76h-14.664l24.539 55.436-13.737 30.919h14.133L1000 78.904zM824.837 90.015H805.23V58.619h19.606a15.858 15.858 0 0 1 11.366 4.492 15.868 15.868 0 0 1 4.829 11.222c-.281 8.732-7.448 15.682-16.194 15.682zm51.042 47.113V45.855h-13.731v91.273h13.731zm61.328 0v-34.85c0-16.181-12.267-25.521-27.968-25.521-9.819 0-20.122 4.427-24.55 14.241l12.262 4.904a13.04 13.04 0 0 1 12.261-6.885c6.88 0 14.236 4.427 14.236 11.787v.974a29.88 29.88 0 0 0-14.236-3.429c-13.254 0-26.491 7.356-26.491 20.616 0 12.261 10.779 20.12 22.563 20.12 9.332 0 14.236-3.928 17.171-8.833h.494v6.874h14.258v.002zm-29.454-10.389c-4.427 0-10.78-2.446-10.78-7.858 0-6.874 7.861-9.807 14.236-9.807a26.424 26.424 0 0 1 12.261 2.954c-.434 8.336-7.362 14.86-15.717 14.798v-.087zM145.169 128.293v45.85a17.499 17.499 0 0 0-8.746-2.441c-9.578 0-17.339 7.758-17.339 17.328 0 9.581 7.761 17.329 17.339 17.329 9.72.076 17.744-7.606 18.078-17.329v-42.119h16.761v-18.704h-26.093v.086z"/><path fill="#FAFAFA" d="M141.596 124.93v45.849a17.506 17.506 0 0 0-8.746-2.441c-9.579 0-17.337 7.759-17.337 17.329 0 9.581 7.758 17.328 17.337 17.328 9.722.076 17.741-7.606 18.077-17.328v-42.12h16.762v-18.704h-26.093v.087z"/></svg>