<svg width="44" height="44" xmlns="http://www.w3.org/2000/svg"><g fill="none" fill-rule="evenodd"><path d="M43.113 5.872a9.307 9.307 0 0 0-5.907-5.3 19.136 19.136 0 0 0-5.314-.56H12.108a19.136 19.136 0 0 0-5.314.56 9.307 9.307 0 0 0-5.907 5.3 17.242 17.242 0 0 0-.87 6.233v19.79a17.24 17.24 0 0 0 .87 6.233 9.307 9.307 0 0 0 5.907 5.3c1.737.435 3.525.623 5.314.56h19.784a19.136 19.136 0 0 0 5.314-.56 9.307 9.307 0 0 0 5.907-5.3c.67-2.007.965-4.12.87-6.233v-19.79a17.24 17.24 0 0 0-.87-6.233z" fill="#FFF"/><g transform="translate(8 5)"><ellipse fill="#FC0" cx="13.61" cy="20.377" rx="13.597" ry="13.581"/><path d="M20.419 6.535v12.704l-.03.01v.017c0 1.242-.09 2.401-.259 2.993a6.783 6.783 0 0 1-6.54 4.909 6.752 6.752 0 0 1-6.758-6.78c0-3.75 3.004-6.78 6.759-6.78a6.78 6.78 0 0 1 5.638 2.994c-.084-.398-.166-.9-.166-1.328V0l8.85 2.708v6.133l-7.494-2.306z" fill="#F33"/></g></g></svg>