<svg width="238" height="51" xmlns="http://www.w3.org/2000/svg"><g fill="none" fill-rule="evenodd"><path d="M43.113 9.872a9.307 9.307 0 0 0-5.907-5.3 19.136 19.136 0 0 0-5.314-.56H12.108a19.136 19.136 0 0 0-5.314.56 9.307 9.307 0 0 0-5.907 5.3 17.242 17.242 0 0 0-.87 6.233v19.79a17.24 17.24 0 0 0 .87 6.233 9.307 9.307 0 0 0 5.907 5.3c1.737.435 3.525.623 5.314.56h19.784a19.136 19.136 0 0 0 5.314-.56 9.307 9.307 0 0 0 5.907-5.3c.67-2.007.965-4.12.87-6.233v-19.79a17.24 17.24 0 0 0-.87-6.233z" fill="#FFF" fill-rule="nonzero"/><g transform="translate(8 9)" fill-rule="nonzero"><ellipse fill="#FC0" cx="13.61" cy="20.377" rx="13.597" ry="13.581"/><path d="M20.419 6.535v12.704l-.03.01v.017c0 1.242-.09 2.401-.259 2.993a6.783 6.783 0 0 1-6.54 4.909 6.752 6.752 0 0 1-6.758-6.78c0-3.75 3.004-6.78 6.759-6.78a6.78 6.78 0 0 1 5.638 2.994c-.084-.398-.166-.9-.166-1.328V0l8.85 2.708v6.133l-7.494-2.306z" fill="#F33"/></g><path d="M65.8 29.04h-2.56L58.36 40H54.8l5.36-11.72c-2.52-1.28-4.2-3.6-4.2-7.88 0-6 3.8-9 8.32-9h4.6V40H65.8V29.04zm0-2.56V14h-1.64c-2.48 0-4.88 1.64-4.88 6.4 0 4.6 2.2 6.08 4.88 6.08h1.64zm33.96 10.96v6.52h-2.8V40h-8.64v3.96h-2.8v-6.52h1.24c1.84-4.28 2.04-10.52 2.04-15.88v-1.72h9.36v17.6h1.6zm13.56 1.2c-1.28 1-2.96 1.64-4.96 1.64-4.16 0-6.72-3.32-6.72-9.52 0-6.48 1.8-11.2 6.08-11.2 3.36 0 5.56 2.52 5.56 9.36v1.72h-8.4c0 4.56 1.28 6.96 3.76 6.96 1.76 0 3.16-.8 3.96-1.36l.72 2.4zm-32.68-18.8h3.08V40h-3.08v-9.04H76V40h-3.12V19.84H76v8.56h4.64v-8.56zM124.92 40l-5.32-10.04V40h-3.12V19.84h3.12v9.32l4.84-9.32h3.16l-5 9.48L128.32 40h-3.4zm10.72.28c-4.32 0-6.92-3.48-6.92-10.36 0-6.32 2.44-10.36 7.16-10.36 1.8 0 2.84.48 3.72 1.04l-.44 2.96c-.84-.72-2.04-1.4-3.32-1.4-2.24 0-3.84 2.52-3.84 7.6 0 5.04 1.2 7.92 3.72 7.92 1.52 0 2.68-.6 3.4-1.24l.72 2.32c-1.08.92-2.36 1.52-4.2 1.52zm-40.56-2.84V22.36H91.6v.36c0 4.24-.2 10.44-1.88 14.72h5.36zm12.64-15.32c-1.92 0-2.6 2.36-2.8 5.96h5.16c0-3.44-.56-5.96-2.36-5.96zm43.56-7.52c0 1.56-.04 3.88-.12 5.84L150.32 40h-1.64l1.24-28.6h2.2l4.28 17.64c.36 1.4.56 2.76.68 3.96h.08c.12-1.2.36-2.56.72-3.96l4.4-17.64h2.24l1.24 28.6h-1.92L163 20.28c-.12-2.24-.08-3.96-.08-5.72h-.12c-.24 1.8-.52 3.48-.96 5.16l-4 15.8h-1.56l-3.96-15.8c-.4-1.56-.72-3.16-.92-5.12h-.12zm19.08 31.8c-.44 0-.76-.04-1.04-.08l-.2-1.76c.32.08.72.16 1.24.16 1.36 0 2.32-1.32 2.92-3.56l.16-.6-5-20.72h1.88l3.2 13.16c.36 1.52.64 3 .84 4.56h.12c.28-1.6.6-3.08.96-4.56l3.12-13.16h1.68l-5.16 21.2c-.68 2.72-1.88 5.36-4.72 5.36zm16.24-6c-3.24 0-4.8-2.24-4.8-2.24l.64-1.56s1.36 2.16 4.12 2.16c2.08 0 3.76-1.48 3.76-4.4 0-2.52-1.24-4.24-4.24-4.24h-1.68V28.6h1.48c2.32 0 3.96-1.4 3.96-4.16 0-2.04-1.08-3.36-3.04-3.36-1.84 0-3.16 1.04-4.04 2.28l-.48-1.8c.88-1.16 2.36-2.12 4.52-2.12 3.16 0 4.84 2 4.84 4.96 0 1.96-.8 3.76-3 4.84 2.52.92 3.6 2.88 3.6 5.08 0 3.92-2.56 6.08-5.64 6.08zm8.96-.4V19.84h1.88v7.48h1.48c3.84 0 6.32 2.08 6.32 6.28 0 4.28-2.64 6.4-6.44 6.4h-3.24zm13.68-20.16V40h-1.84V19.84h1.84zm-10.4 8.96h-1.4v9.72h1.2c2.84 0 4.76-1.4 4.76-4.88 0-3.4-1.68-4.84-4.56-4.84zm16.76.76V40h-1.88V19.84h1.88v9.48l6.76-9.48h1.84l-6.64 9.36 7.12 10.8h-2.08l-7-10.44zm15.32 9.32c1.88 0 3.2-1.8 3.92-3.96v-5.56h-2.16c-3.32 0-4.92 1.52-4.92 5.04 0 2.84 1.24 4.48 3.16 4.48zM235.4 40c-.16-.52-.36-1.28-.48-2.72-.96 1.92-2.4 3.12-4.4 3.12-2.72 0-4.6-2.16-4.6-5.84 0-4.32 2.36-6.56 6.72-6.56h2.2v-2.52c0-3.08-1.16-4.4-3.36-4.4-1.72 0-3.28.8-4.24 2.2l-.52-1.8c.8-1.04 2.48-2.04 4.76-2.04 3.32 0 5.2 1.84 5.2 5.84v11c0 1.4.2 2.96.44 3.72h-1.72z" fill="#FFF"/></g></svg>