<svg xmlns="http://www.w3.org/2000/svg" width="48" height="48"><path d="M21.805 10.11L10.184 3.558C9.516 3.179 8.984 3 8.21 3 6.883 3 6 3.875 6 5.406v37.188C6 44.125 6.883 45 8.21 45c.77 0 1.306-.18 1.974-.559l9.359-5.277.031-1.977 17.899-10.44 2.14 1.1 2.785-1.57C43.285 25.773 44 25.094 44 24s-.715-1.773-1.602-2.277L38.7 19.625zm0 0" fill="#ff3d00"/><path d="M19.543 39.164l7.45-4.2 4.034-2.276 8.586-4.84c.242-1.078.387-2.196.387-3.348C40 15.941 33.059 9 24.5 9 16.402 9 9.758 15.21 9.059 23.125c-.04.453-.059.91-.059 1.375 0 6.824 4.418 12.594 10.543 14.664zm0 0" fill="#ffd600"/><path d="M24.5 15c-5.246 0-9.5 4.254-9.5 9.5s4.254 9.5 9.5 9.5 9.5-4.254 9.5-9.5-4.254-9.5-9.5-9.5zm0 0" fill="#ff8f00"/><path d="M24.352 19v5.871a2.27 2.27 0 0 0-1.125-.308c-1.247 0-2.227 1-2.227 2.218A2.216 2.216 0 0 0 23.227 29c1.242 0 2.32-1 2.32-2.219v-5.394h2.152V19zm0 0" fill="#fff"/></svg>