<svg width="176" height="171" xmlns="http://www.w3.org/2000/svg">
  <path
    d="M137.532 76.477c-26.994-16.031-71.52-17.505-97.289-9.684-4.138 1.255-8.514-1.081-9.768-5.219a7.835 7.835 0 0 1 5.221-9.771c29.581-8.979 78.755-7.245 109.831 11.202a7.831 7.831 0 0 1 2.737 10.733c-2.208 3.722-7.019 4.949-10.732 2.739zm-.884 23.744c-1.893 3.073-5.911 4.036-8.98 2.15-22.505-13.834-56.822-17.841-83.447-9.759-3.453 1.043-7.1-.904-8.148-4.35a6.538 6.538 0 0 1 4.353-8.143c30.416-9.229 68.226-4.759 94.074 11.126 3.069 1.89 4.035 5.91 2.148 8.976zm-10.247 22.803a5.215 5.215 0 0 1-7.176 1.737c-19.666-12.019-44.418-14.734-73.568-8.075a5.217 5.217 0 0 1-6.249-3.925 5.212 5.212 0 0 1 3.925-6.249c31.9-7.293 59.264-4.154 81.337 9.334a5.22 5.22 0 0 1 1.731 7.178zM87.996 2.237c-46.25 0-83.744 37.492-83.744 83.742 0 46.253 37.494 83.744 83.744 83.744 46.251 0 83.743-37.491 83.743-83.744 0-46.25-37.492-83.742-83.743-83.742z"
    fill="#fff" fill-rule="evenodd"/>
</svg>
