<svg width="48" height="48" xmlns="http://www.w3.org/2000/svg"><g fill="#fff" fill-rule="evenodd"><path d="M23.992.015c-6.516 0-7.333.028-9.892.145-2.553.116-4.297.522-5.824 1.115-1.577.613-2.915 1.433-4.25 2.767-1.333 1.334-2.153 2.672-2.766 4.25-.594 1.526-1 3.27-1.116 5.824C.028 16.675 0 17.492 0 24.008S.028 31.34.144 33.9c.117 2.553.522 4.297 1.116 5.824.613 1.577 1.433 2.915 2.767 4.25 1.334 1.333 2.672 2.153 4.25 2.766 1.526.594 3.27 1 5.823 1.116 2.56.116 3.376.144 9.892.144s7.333-.028 9.892-.144c2.554-.117 4.298-.522 5.824-1.116 1.578-.613 2.916-1.433 4.25-2.767 1.334-1.334 2.154-2.672 2.767-4.25.593-1.526.999-3.27 1.115-5.823.117-2.56.145-3.376.145-9.892s-.028-7.333-.145-9.892c-.116-2.554-.522-4.298-1.115-5.824-.613-1.578-1.433-2.916-2.767-4.25-1.334-1.334-2.672-2.154-4.25-2.767C38.182.682 36.438.276 33.884.16 31.325.043 30.508.015 23.992.015zm0 4.323c6.407 0 7.166.025 9.695.14 2.34.107 3.61.498 4.455.826 1.12.435 1.92.955 2.76 1.795.839.84 1.359 1.639 1.794 2.759.328.845.72 2.115.826 4.455.115 2.53.14 3.288.14 9.695 0 6.406-.025 7.165-.14 9.695-.107 2.339-.498 3.61-.826 4.455-.435 1.12-.955 1.919-1.795 2.758-.84.84-1.639 1.36-2.759 1.795-.845.329-2.115.72-4.455.826-2.53.116-3.288.14-9.695.14-6.406 0-7.165-.024-9.695-.14-2.339-.107-3.61-.497-4.455-.826-1.12-.435-1.919-.955-2.758-1.795-.84-.84-1.36-1.638-1.795-2.758-.329-.846-.72-2.116-.826-4.455-.116-2.53-.14-3.29-.14-9.695 0-6.407.024-7.166.14-9.695.107-2.34.497-3.61.826-4.455.435-1.12.955-1.92 1.795-2.76.84-.839 1.638-1.359 2.758-1.794.846-.328 2.116-.72 4.455-.826 2.53-.115 3.29-.14 9.695-.14z"/><path d="M23.992 32.005a7.997 7.997 0 1 1 0-15.995 7.997 7.997 0 0 1 0 15.995zm0-20.318c-6.804 0-12.32 5.516-12.32 12.32 0 6.805 5.516 12.321 12.32 12.321 6.805 0 12.32-5.516 12.32-12.32 0-6.805-5.515-12.32-12.32-12.32zM39.679 11.2a2.88 2.88 0 1 1-5.758 0 2.88 2.88 0 0 1 5.758 0"/></g></svg>